<?xml version="1.0" encoding="iso-8859-1"?>
<!-- Uploaded to: SVG Repo, www.svgrepo.com, Generator: SVG Repo Mixer Tools -->
<svg fill="#000000" height="800px" width="800px" version="1.1" id="Layer_1" xmlns="http://www.w3.org/2000/svg" xmlns:xlink="http://www.w3.org/1999/xlink" 
	 viewBox="0 0 512 512" xml:space="preserve">
<g>
	<g>
		<path d="M511.726,503.54c0.122-0.613-0.338-1.232-0.338-1.854V378.574V255.462V132.35V9.238c0-5.234-3.186-8.855-8.42-8.855
			H379.856H256.744H133.632H10.52c-0.622,0-1.242-0.243-1.852-0.12C8.36,0.323,8.074,0.281,7.78,0.372
			C7.486,0.459,7.188,0.448,6.904,0.566C6.532,0.721,6.189,0.89,5.84,1.089C5.655,1.195,5.459,1.255,5.278,1.375
			C4.231,2.071,3.332,2.961,2.636,4.009c-0.12,0.18-0.199,0.37-0.305,0.557c-0.199,0.347-0.407,0.687-0.56,1.061
			c-0.12,0.285-0.185,0.581-0.273,0.874c-0.09,0.296-0.726,0.58-0.788,0.888C0.59,7.999,0,8.619,0,9.238V132.35v123.112v123.112
			v123.112c0,5.235,5.285,10.085,10.52,10.085h123.112h123.112h123.112h123.112c0.62,0,1.239-0.372,1.852-0.492
			c0.308-0.063,0.592-0.328,0.888-0.419c0.291-0.088,0.59-0.229,0.874-0.347c0.375-0.155,0.717-0.4,1.064-0.599
			c0.187-0.106,0.382-0.206,0.562-0.324c1.05-0.698,1.947-1.607,2.645-2.654c0.12-0.18,0.199-0.381,0.305-0.566
			c0.199-0.349,0.405-0.694,0.56-1.066c0.118-0.285,0.182-0.583,0.27-0.876C512.077,504.132,511.666,503.846,511.726,503.54z
			 M18.94,32.1l91.83,91.395H80.304L18.94,71.183V32.1z M18.94,96.114l32.279,27.382H18.94V96.114z M18.94,278.324l91.83,91.395
			H80.304L18.94,317.407V278.324z M18.94,342.338l32.279,27.382H18.94V342.338z M123.112,492.831H18.94V388.659h104.172V492.831z
			 M123.112,355.713l-89.731-90.165h30.464l59.267,51.085V355.713z M123.112,291.701l-30.181-26.154h30.181V291.701z
			 M123.112,246.607H18.94V142.436h104.172V246.607z M123.112,109.489L33.381,19.324h30.464l59.267,51.085V109.489z M123.112,45.478
			L92.931,19.324h30.181V45.478z M142.052,155.212l91.83,91.395h-30.466l-61.364-52.312V155.212z M142.052,219.226l32.279,27.382
			h-32.279V219.226z M142.052,492.831V465.45l32.279,27.382H142.052z M203.416,492.831l-61.364-52.312v-39.083l91.83,91.395H203.416
			z M246.224,478.825l-89.731-90.165h30.464l59.267,51.085V478.825z M246.224,414.813l-30.181-26.154h30.181V414.813z
			 M246.224,369.719H142.052V265.547h104.172V369.719z M246.224,232.601l-89.731-90.165h30.464l59.267,51.085V232.601z
			 M246.224,168.589l-30.181-26.154h30.181V168.589z M246.224,123.495H142.052V19.324h104.172V123.495z M265.164,32.1l91.83,91.395
			h-30.466l-61.364-52.312V32.1z M265.164,96.114l32.279,27.382h-32.279V96.114z M265.164,278.324l91.83,91.395h-30.466
			l-61.364-52.312V278.324z M265.164,342.338l32.279,27.382h-32.279V342.338z M369.336,492.831H265.164V388.659h104.172V492.831z
			 M369.336,355.713l-89.731-90.165h30.464l59.267,51.085V355.713z M369.336,291.701l-30.181-26.154h30.181V291.701z
			 M369.336,246.607H265.164V142.436h104.172V246.607z M369.336,109.489l-89.731-90.165h30.464l59.267,51.085V109.489z
			 M369.336,45.478l-30.181-26.154h30.181V45.478z M388.276,155.212l91.83,91.395H449.64l-61.364-52.312V155.212z M388.276,219.226
			l32.279,27.382h-32.279V219.226z M388.276,492.831V465.45l32.279,27.382H388.276z M449.64,492.831l-61.364-52.312v-39.083
			l91.83,91.395H449.64z M492.448,478.825l-89.731-90.165h30.464l59.267,51.085V478.825z M492.448,414.813l-30.181-26.154h30.181
			V414.813z M492.448,369.719H388.276V265.547h104.172V369.719z M492.448,232.601l-89.731-90.165h30.464l59.267,51.085V232.601z
			 M492.448,168.589l-30.181-26.154h30.181V168.589z M492.448,123.495H388.276V19.324h104.172V123.495z"/>
	</g>
</g>
</svg>